<svg xmlns="http://www.w3.org/2000/svg" viewBox="0 0 24 24" fill="none" stroke="#1e40af" stroke-width="2" stroke-linecap="round" stroke-linejoin="round">
  <path d="M14 16.5v3.5h-4v-3.5"/>
  <path d="M6 12h12"/>
  <path d="M4 22v-4.5c0-1 .1-1.7.4-2.4a5 5 0 0 1 1.1-1.9"/>
  <path d="M22 11v4c0 .7-.4 1.9-1 2.5"/>
  <circle cx="5" cy="7" r="1"/>
  <path d="M9.7 4.7c.4-.2 1-.4 1.6-.4.2 0 .8.1.8.4a1 1 0 0 1-.5.7h-1.4a1 1 0 0 1-.5-.7Z"/>
  <path d="M6.1 10.2c.3-1.1 1.4-1.9 2.8-1.9"/>
  <path d="M17.9 10.2c-.3-1.1-1.4-1.9-2.8-1.9"/>
  <path d="M15.2 3.3c-.4-.2-1-.4-1.6-.4-.2 0-.8.1-.8.4a1 1 0 0 0 .5.7h1.4a1 1 0 0 0 .5-.7Z"/>
  <path d="M16.5 5l.5 2"/>
  <path d="M7.5 5l-.5 2"/>
  <circle cx="19" cy="7" r="1"/>
</svg>